<?xml version="1.0" standalone="no"?>
<!DOCTYPE svg PUBLIC "-//W3C//DTD SVG 20010904//EN"
 "http://www.w3.org/TR/2001/REC-SVG-20010904/DTD/svg10.dtd">
<svg version="1.0" xmlns="http://www.w3.org/2000/svg"
 width="300.000000pt" height="300.000000pt" viewBox="0 0 300.000000 300.000000"
 preserveAspectRatio="xMidYMid meet">
<metadata>
Created by potrace 1.11, written by Peter Selinger 2001-2013
</metadata>
<g transform="translate(0.000000,300.000000) scale(0.100000,-0.100000)"
fill="#000000" stroke="none">
<path d="M0 1500 l0 -1500 1500 0 1500 0 0 1500 0 1500 -1500 0 -1500 0 0
-1500z m2235 818 c-2 -13 -14 -84 -25 -158 -12 -74 -25 -147 -30 -161 -4 -15
-75 -109 -157 -210 -82 -101 -181 -223 -219 -270 -38 -47 -142 -177 -231 -287
-90 -111 -163 -204 -163 -206 0 -3 138 -7 308 -8 197 -2 306 -7 306 -13 -31
-209 -57 -365 -64 -382 l-10 -23 -579 0 c-319 0 -582 3 -584 8 -9 14 50 352
65 370 8 9 142 178 299 376 156 197 321 405 366 462 l83 104 -284 0 c-157 0
-287 4 -290 8 -4 7 49 367 59 400 4 9 128 12 580 12 l575 0 -5 -22z"/>
</g>
</svg>
